<svg width="73" height="95" viewBox="0 0 73 95" fill="none" xmlns="http://www.w3.org/2000/svg">
<path d="M52.6 65.4C51.5 67.4 50.2 69.6 48.9 71.9C46.4 76.4 41.5 79.2 36.4 79.2C31.1 79.2 26.5 76.5 23.9 71.9C22.6 69.6 21.4 67.5 20.2 65.4C8.2 67.9 0 73.2 0 79.4C0 88 16.3 95 36.4 95C56.5 95 72.8 88 72.8 79.4C72.9 73.2 64.7 67.9 52.6 65.4Z" fill="#D25099"/>
<path d="M41.3 67.4C48.2 55.4 60.3 33.1 60.3 23.8C60.3 10.6 49.6 0 36.5 0C23.4 0 12.7 10.6 12.7 23.8C12.7 33.1 24.7 55.4 31.7 67.4C33.8 71.1 39.1 71.1 41.3 67.4ZM25.4 23.8C25.4 17.7 30.4 12.7 36.5 12.7C42.6 12.7 47.6 17.7 47.6 23.8C47.6 29.9 42.6 34.9 36.5 34.9C30.4 34.9 25.4 29.9 25.4 23.8Z" fill="#D25099"/>
</svg>
