<svg width="222" height="60" viewBox="0 0 222 60" fill="none" xmlns="http://www.w3.org/2000/svg">
<g clip-path="url(#clip0_29_14)">
<path d="M92.2147 31.0768C92.3069 33.9192 91.9305 36.7386 91.0854 39.5348C90.2404 42.3311 88.896 44.7971 87.0523 46.9327C85.224 49.053 82.8502 50.5433 79.931 51.4037C79.1167 51.6342 78.287 51.7648 77.442 51.7955C76.6123 51.8263 75.821 51.6957 75.0682 51.4037C74.7302 51.2808 74.4152 51.1195 74.1233 50.9198C73.1553 50.2437 72.51 49.3296 72.1874 48.1772C72.1106 48.3923 72.0261 48.6612 71.9339 48.9839C71.8417 49.3219 71.7572 49.6368 71.6804 49.9288C71.6804 49.9288 71.6727 49.9441 71.6573 49.9749C71.6573 50.0056 71.642 50.044 71.6112 50.0901C71.5805 50.1515 71.5344 50.2053 71.473 50.2514C71.4115 50.3129 71.3193 50.3666 71.1964 50.4127C71.0428 50.4588 70.8891 50.4896 70.7355 50.5049C70.5818 50.5203 70.4512 50.5203 70.3437 50.5049C70.2515 50.5049 70.2054 50.5049 70.2054 50.5049C69.2221 50.3513 68.5691 50.0286 68.2465 49.537C67.9238 49.0453 67.7855 48.4922 67.8316 47.8776C67.8777 47.2784 67.9622 46.7484 68.0851 46.2874C68.1312 46.1338 68.162 46.0032 68.1773 45.8957C68.2849 45.4501 68.7688 43.8292 69.6292 41.0329C70.505 38.2366 71.496 35.0792 72.6022 31.5608C73.7238 28.0424 74.7148 24.9311 75.5752 22.227C76.451 19.5229 76.8889 18.1709 76.8889 18.1709C77.0271 17.7407 77.1961 17.4641 77.3959 17.3412C77.1808 17.3565 76.958 17.3873 76.7275 17.4334C74.4844 17.8175 72.3794 18.6011 70.4128 19.7841C70.2131 19.8916 70.0057 19.9762 69.7906 20.0376C69.5755 20.0837 69.3911 20.0376 69.2375 19.8993C69.1145 19.7457 69.0531 19.569 69.0531 19.3693C68.9455 18.1248 69.2912 17.0032 70.0902 16.0045C70.8891 15.0058 71.8878 14.2837 73.0862 13.8381C73.1938 13.8074 73.2936 13.7767 73.3858 13.7459C75.7365 12.9777 78.0412 12.8702 80.2997 13.4233C82.5736 13.9764 84.6094 15.0903 86.407 16.765C88.3736 18.6395 89.8179 20.8212 90.7397 23.3102C91.6616 25.7992 92.1532 28.3881 92.2147 31.0768ZM81.7747 46.4718C81.8054 46.1338 81.6979 45.8496 81.452 45.6191V45.596C80.6838 44.8739 79.8695 44.413 79.0091 44.2133C77.9336 44.0135 76.9734 44.1825 76.1283 44.7203C75.944 44.8586 75.7826 45.0122 75.6444 45.1812C75.4139 45.4731 75.2602 45.8188 75.1834 46.2183C75.0912 46.8943 75.2065 47.4244 75.5291 47.8085C75.8364 48.1926 76.3204 48.4077 76.981 48.4538C77.0732 48.4538 77.1654 48.4538 77.2576 48.4538C77.8722 48.4538 78.4867 48.3539 79.1013 48.1542C79.7312 47.9545 80.2767 47.7394 80.7376 47.5089C80.9066 47.4321 81.0756 47.3476 81.2446 47.2554C81.5365 47.071 81.7132 46.8098 81.7747 46.4718ZM88.366 36.0548C88.8269 34.0268 89.042 31.9449 89.0113 29.8093C88.9959 27.6736 88.6195 25.6225 87.882 23.6559C87.0216 21.5203 85.731 19.907 84.0102 18.8161C82.2894 17.7253 80.3151 17.2183 78.0873 17.2951C78.1641 17.3258 78.2255 17.3642 78.2716 17.4103C78.3331 17.441 78.3792 17.4718 78.4099 17.5025C78.4406 17.5179 78.456 17.5256 78.456 17.5256C78.456 17.5256 78.5866 17.6408 78.8478 17.8712C79.109 18.1017 79.4701 18.5012 79.931 19.0697C80.1614 19.4384 80.1691 20.1221 79.954 21.1208C79.7389 22.1041 79.4393 23.218 79.0552 24.4625C78.7479 25.4612 78.4791 26.4291 78.2486 27.3664C78.1564 27.7505 78.0258 28.2114 77.8568 28.7491C77.6878 29.2715 77.5188 29.8016 77.3498 30.3393C77.1808 30.8617 77.0348 31.3073 76.9119 31.676C76.8044 32.0294 76.7506 32.2061 76.7506 32.2061C76.6891 32.3751 76.5969 32.644 76.474 33.0127C76.3665 33.3661 76.2436 33.7502 76.1053 34.165C75.9824 34.5645 75.8748 34.9179 75.7826 35.2252C75.6904 35.5171 75.6444 35.6631 75.6444 35.6631L73.501 43.084C74.3461 42.2082 75.3524 41.6244 76.5201 41.3325C78.6711 40.9023 80.6531 41.3325 82.4661 42.6231C83.3111 43.2069 83.918 43.9674 84.2867 44.9047C84.425 44.7356 84.5556 44.559 84.6785 44.3746C86.046 42.4694 87.083 40.4029 87.7898 38.1751C88.0049 37.4684 88.1969 36.7616 88.366 36.0548ZM102.032 39.3044C102.155 39.3812 102.263 39.4811 102.355 39.604C102.647 40.0956 102.716 40.6257 102.563 41.1942C102.409 41.7319 102.163 42.2236 101.825 42.6692C101.333 43.3759 100.742 43.9905 100.05 44.5129C99.3437 45.0506 98.5525 45.3425 97.6767 45.3886C96.6934 45.3886 95.9636 45.0813 95.4873 44.4668C95.0264 43.8522 94.7575 43.1147 94.6807 42.2543C94.6038 41.3786 94.6653 40.5566 94.865 39.7884C95.034 39.2352 95.2415 38.6975 95.4873 38.1751C95.687 37.7449 95.8637 37.307 96.0174 36.8615C96.0174 36.8461 96.0174 36.8307 96.0174 36.8154C96.1095 36.5542 96.171 36.3007 96.2017 36.0548C96.2325 35.7937 96.1556 35.5786 95.9713 35.4095C95.8176 35.2866 95.6947 35.1944 95.6025 35.133C95.5103 35.0715 95.4412 35.0331 95.3951 35.0178C95.349 35.0024 95.326 34.9947 95.326 34.9947C95.326 34.9947 95.1416 35.3865 94.7729 36.1701C94.4195 36.9383 93.9662 37.8448 93.4131 38.8895C92.86 39.919 92.2838 40.8869 91.6846 41.7934C91.5617 41.9778 91.4311 42.0853 91.2928 42.116C91.1546 42.1468 91.0317 42.0776 90.9241 41.9086L90.2788 40.9407C90.033 40.5566 90.033 40.1725 90.2788 39.7884C90.7244 39.0355 91.1469 38.2596 91.5464 37.4607C91.9458 36.6617 92.2454 36.0472 92.4452 35.617C92.522 35.4787 92.5758 35.3788 92.6065 35.3174C92.8523 34.8103 93.029 34.4493 93.1366 34.2342C93.2441 34.0344 93.3132 33.8962 93.344 33.8193C93.4208 33.6042 93.4362 33.4045 93.3901 33.2201C93.3747 33.1433 93.367 33.0588 93.367 32.9666C93.367 32.9666 93.3747 32.8591 93.3901 32.644C93.4208 32.4135 93.4746 32.1293 93.5514 31.7913C93.6436 31.4533 93.7819 31.1076 93.9662 30.7542C94.166 30.3854 94.4272 30.0474 94.7498 29.7401C95.1032 29.4636 95.4412 29.3176 95.7638 29.3023C96.0865 29.2869 96.3477 29.3099 96.5474 29.3714C96.5782 29.3714 96.6089 29.3791 96.6396 29.3944C96.7472 29.3944 96.8931 29.4482 97.0775 29.5558C97.2772 29.648 97.4232 29.8093 97.5154 30.0397C97.6076 30.2548 97.5691 30.5621 97.4001 30.9616C97.2465 31.2996 97.1389 31.5685 97.0775 31.7682C97.016 31.9526 96.9776 32.0909 96.9623 32.1831C96.9623 32.2752 96.9623 32.3444 96.9623 32.3905C96.9623 32.4058 96.9623 32.4289 96.9623 32.4596C96.9469 32.6747 96.993 32.8591 97.1005 33.0127C97.2234 33.1664 97.3617 33.2893 97.5154 33.3815C97.5615 33.4122 97.6229 33.4506 97.6997 33.4967C97.9148 33.635 98.153 33.804 98.4142 34.0037C98.6754 34.1881 98.8521 34.3878 98.9442 34.6029C99.1747 35.156 99.1901 35.786 98.9903 36.4927C98.9289 36.6617 98.829 36.8999 98.6907 37.2072C98.5678 37.5144 98.4295 37.8294 98.2759 38.1521C98.1376 38.4747 98.0147 38.7513 97.9072 38.9817C97.815 39.1968 97.7689 39.3044 97.7689 39.3044C97.5538 39.7807 97.3848 40.2723 97.2619 40.7794C97.2311 40.9023 97.2004 41.0252 97.1697 41.1481C97.0468 41.5168 96.9776 41.8779 96.9623 42.2313C96.9623 42.5693 97.0929 42.8228 97.354 42.9918C97.5999 43.0994 97.8534 43.1147 98.1146 43.0379C98.8521 42.7921 99.4436 42.3388 99.8891 41.6782C100.227 41.2019 100.519 40.7025 100.765 40.1801C100.842 40.0111 100.926 39.8498 101.018 39.6962C101.095 39.5118 101.218 39.3658 101.387 39.2583C101.602 39.1507 101.817 39.1661 102.032 39.3044ZM115.653 39.3966C116.037 39.8114 116.191 40.3031 116.114 40.8715C116.006 41.4093 115.799 41.9009 115.492 42.3465C114.37 43.9598 112.933 45.2196 111.182 46.1261C109.937 46.756 108.624 47.1786 107.241 47.3937C105.996 47.6088 104.967 47.578 104.153 47.3015C103.354 47.0096 102.724 46.5947 102.263 46.057C101.802 45.5039 101.464 44.9354 101.249 44.3515C101.049 43.7523 100.926 43.2376 100.88 42.8074C100.819 42.3772 100.788 42.1621 100.788 42.1621C100.68 40.595 100.965 39.12 101.641 37.7372C102.332 36.3544 103.139 35.156 104.061 34.142C104.998 33.128 105.789 32.3982 106.434 31.9526C107.034 31.5378 107.579 31.3457 108.071 31.3764C108.578 31.4072 109.008 31.5454 109.361 31.7913C109.715 32.0217 109.983 32.2368 110.168 32.4366C110.214 32.4827 110.26 32.5287 110.306 32.5748C110.521 32.7592 110.706 32.9897 110.859 33.2662C111.028 33.5428 111.082 33.9269 111.021 34.4186C110.959 34.8948 110.706 35.5478 110.26 36.3775C109.492 37.7295 108.601 38.928 107.587 39.9727C106.588 41.0175 105.697 41.8472 104.913 42.4617C104.145 43.0763 103.761 43.3836 103.761 43.3836C103.807 43.6141 103.945 43.9137 104.176 44.2824C104.422 44.6511 104.698 44.9507 105.005 45.1812C105.482 45.4885 106.012 45.6114 106.596 45.55C107.179 45.4885 107.71 45.3579 108.186 45.1582C110.89 44.0519 112.995 42.2466 114.501 39.7423C114.577 39.6194 114.654 39.5041 114.731 39.3966C114.823 39.289 114.938 39.2199 115.077 39.1892C115.23 39.1738 115.376 39.2122 115.515 39.3044C115.561 39.3351 115.607 39.3658 115.653 39.3966ZM108.37 33.635C107.295 34.3725 106.434 35.133 105.789 35.9166C105.159 36.6848 104.69 37.3992 104.383 38.0599C104.076 38.7052 103.876 39.2352 103.784 39.6501C103.692 40.0649 103.646 40.2723 103.646 40.2723C104.859 39.4119 105.827 38.5362 106.55 37.645C107.287 36.7539 107.825 35.9857 108.163 35.3404C108.501 34.6797 108.685 34.288 108.716 34.165C108.793 33.9346 108.785 33.7733 108.693 33.6811C108.601 33.5735 108.493 33.5582 108.37 33.635ZM127.13 39.4196C127.145 39.4196 127.153 39.4119 127.153 39.3966C127.245 39.2429 127.368 39.1584 127.522 39.1431C127.691 39.1123 127.844 39.1584 127.983 39.2813C128.351 39.6654 128.551 40.111 128.582 40.618C128.628 41.1097 128.505 41.5706 128.213 42.0008C128.06 42.2313 127.906 42.4541 127.752 42.6692C127.706 42.7306 127.652 42.7921 127.591 42.8535C127.115 43.591 126.523 44.1902 125.816 44.6511C125.816 44.6665 125.74 44.7049 125.586 44.7664C125.448 44.8278 125.256 44.8893 125.01 44.9507C124.764 44.9968 124.495 45.0122 124.203 44.9968C123.927 44.9815 123.642 44.8893 123.35 44.7203C123.058 44.5513 122.79 44.2747 122.544 43.8906C122.313 43.5065 122.121 42.9841 121.968 42.3235C121.276 43.3375 120.485 44.267 119.594 45.1121C119.548 45.1735 119.494 45.2196 119.432 45.2504C118.849 45.7113 118.211 45.911 117.52 45.8496C116.844 45.7881 116.237 45.4962 115.699 44.9738C114.823 43.9751 114.362 42.8074 114.316 41.4707C114.27 39.5348 114.746 37.7295 115.745 36.0548C116.698 34.4723 117.919 33.1126 119.409 31.9756C120.915 30.8387 122.621 30.2548 124.526 30.2241C125.34 30.2395 125.955 30.3547 126.369 30.5698C126.784 30.7695 127.053 31.0154 127.176 31.3073C127.299 31.5838 127.353 31.8527 127.337 32.1139C127.322 32.3597 127.291 32.5441 127.245 32.667C127.245 32.6978 127.238 32.7208 127.222 32.7362C127.222 32.7362 127.199 32.7976 127.153 32.9205C127.122 33.0281 127.053 33.1587 126.946 33.3123C126.853 33.466 126.723 33.6042 126.554 33.7272C126.4 33.8347 126.2 33.8885 125.955 33.8885C125.755 33.8731 125.563 33.8117 125.378 33.7041C125.209 33.5812 125.04 33.4506 124.871 33.3123C124.749 33.2048 124.633 33.1126 124.526 33.0358C123.973 32.6209 123.35 32.5595 122.659 32.8514C121.983 33.128 121.107 33.8731 120.032 35.0869C118.987 36.2699 118.203 37.307 117.681 38.1982C117.159 39.0739 116.821 39.8268 116.667 40.4567C116.513 41.0713 116.475 41.5783 116.552 41.9778C116.629 42.3619 116.744 42.6538 116.897 42.8535C117.051 43.0533 117.159 43.1762 117.22 43.2223C117.343 43.3298 117.466 43.399 117.589 43.4297C117.712 43.4451 117.827 43.4451 117.934 43.4297C118.057 43.399 118.15 43.3682 118.211 43.3375C118.288 43.3068 118.326 43.2914 118.326 43.2914C118.326 43.2914 118.549 43.1147 118.995 42.7613C119.456 42.3926 119.955 41.7857 120.493 40.9407C121.061 39.9574 121.576 39.0432 122.037 38.1982C122.436 37.4453 122.774 36.8461 123.051 36.4005C123.081 36.3391 123.12 36.2776 123.166 36.2162C123.412 35.8167 123.673 35.4095 123.95 34.9947C124.241 34.5799 124.487 34.3033 124.687 34.165C124.918 34.0729 125.209 34.0729 125.563 34.165C125.932 34.2572 126.223 34.4186 126.439 34.649C126.561 34.8027 126.608 34.9947 126.577 35.2252C126.561 35.4403 126.508 35.6477 126.416 35.8474C126.385 35.9242 126.316 36.0933 126.208 36.3544C126.101 36.6003 125.985 36.8768 125.862 37.1841C125.74 37.4914 125.632 37.7603 125.54 37.9907C125.448 38.2212 125.401 38.3364 125.401 38.3364C125.401 38.3364 125.332 38.4901 125.194 38.7974C125.071 39.0893 124.925 39.4503 124.756 39.8805C124.603 40.2954 124.457 40.7102 124.318 41.125C124.195 41.5245 124.134 41.8472 124.134 42.093C124.134 42.2159 124.142 42.3235 124.157 42.4156C124.188 42.4925 124.218 42.5539 124.249 42.6C124.28 42.6307 124.311 42.6538 124.341 42.6692C124.372 42.6845 124.403 42.6922 124.434 42.6922C124.464 42.6922 124.495 42.6922 124.526 42.6922C124.556 42.6768 124.58 42.6615 124.595 42.6461C124.61 42.6307 124.618 42.6231 124.618 42.6231C124.618 42.6231 124.656 42.5923 124.733 42.5309C124.825 42.4694 124.925 42.3926 125.033 42.3004C125.156 42.2082 125.271 42.1007 125.378 41.9778C125.624 41.6858 125.909 41.3094 126.231 40.8485C126.554 40.3722 126.853 39.8959 127.13 39.4196ZM150.407 39.3044C150.468 39.3505 150.522 39.3966 150.568 39.4427C150.968 39.9804 151.098 40.5719 150.96 41.2172C150.806 41.6935 150.568 42.1391 150.245 42.5539C149.293 43.906 148.287 45.2273 147.226 46.5179C147.211 46.5486 147.196 46.5794 147.18 46.6101C146.796 47.0864 146.335 47.5934 145.798 48.1311C145.275 48.6843 144.699 49.1221 144.069 49.4448C143.439 49.7674 142.794 49.8289 142.133 49.6292C141.688 49.4602 141.35 49.1529 141.119 48.7073C140.643 47.724 140.512 46.6946 140.727 45.6191C140.958 44.2056 141.242 42.8074 141.58 41.4247C142.195 38.9203 142.94 36.462 143.816 34.0498C143.831 34.0344 143.839 34.0268 143.839 34.0268C144.33 32.5825 144.092 32.4519 143.124 33.635C143.078 33.6811 143.032 33.7348 142.986 33.7963C142.878 33.9499 142.771 34.0882 142.663 34.2111C139.606 37.96 137.094 42.0392 135.127 46.4488C135.05 46.5563 134.897 46.5717 134.666 46.4949C134.451 46.4027 134.205 46.2644 133.929 46.08C133.667 45.8803 133.437 45.6729 133.237 45.4578C133.053 45.2427 132.968 45.066 132.984 44.9277C133.091 44.0519 133.199 43.1839 133.306 42.3235C133.414 41.4631 133.522 40.595 133.629 39.7192C133.644 39.5963 133.66 39.458 133.675 39.3044C133.706 39.0586 133.737 38.805 133.767 38.5439C133.783 37.7295 133.491 37.599 132.892 38.1521C132.692 38.3518 132.515 38.5592 132.362 38.7743C132.346 38.7897 132.338 38.7974 132.338 38.7974C131.939 39.3197 131.555 39.8575 131.186 40.4106C129.68 42.6845 128.536 45.1198 127.752 47.7163C127.706 47.8239 127.568 47.8315 127.337 47.7394C127.122 47.6625 126.876 47.5319 126.6 47.3476C126.323 47.1632 126.085 46.9635 125.885 46.7484C125.686 46.5333 125.594 46.3489 125.609 46.1953C126.177 41.3094 127.453 36.608 129.435 32.0909C129.496 31.9987 129.642 31.9987 129.872 32.0909C130.118 32.1677 130.38 32.306 130.656 32.5057C130.948 32.6901 131.186 32.8975 131.371 33.128C131.555 33.3584 131.609 33.5658 131.532 33.7502C131.025 34.9025 130.564 36.0702 130.149 37.2533C130.549 36.6387 131.071 36.1624 131.716 35.8244C132.162 35.6554 132.6 35.64 133.03 35.7783C133.46 35.9012 133.852 36.0933 134.205 36.3544C135.035 36.8922 135.588 37.622 135.865 38.5439C135.911 38.7436 135.941 38.9356 135.957 39.12C136.325 38.5054 136.702 37.9062 137.086 37.3224C138.453 35.1714 139.982 33.151 141.672 31.2612C142.041 30.8156 142.487 30.493 143.009 30.2932C143.378 30.2164 143.739 30.2472 144.092 30.3854C144.445 30.5083 144.768 30.6774 145.06 30.8925C145.736 31.3227 146.212 31.9142 146.489 32.667C146.643 33.2662 146.612 33.8578 146.397 34.4416C146.136 35.2252 145.867 36.0011 145.59 36.7693C145.191 37.8601 144.822 38.9741 144.484 40.111C143.931 42.0469 143.47 43.9905 143.101 45.9417C143.086 45.9878 143.07 46.0493 143.055 46.1261C143.009 46.2951 142.971 46.4795 142.94 46.6792C142.909 46.879 142.924 47.0403 142.986 47.1632C143.047 47.2708 143.186 47.2861 143.401 47.2093C143.785 47.0249 144.107 46.756 144.369 46.4027C146.197 44.2517 147.887 41.9931 149.439 39.627C149.516 39.5041 149.6 39.3966 149.692 39.3044C149.8 39.2122 149.923 39.1584 150.061 39.1431C150.184 39.1584 150.299 39.2122 150.407 39.3044ZM191.222 12.294C192.113 12.801 192.635 13.4924 192.789 14.3682C192.958 15.2286 192.912 16.1044 192.651 16.9955C192.39 17.8712 192.059 18.5857 191.66 19.1388C191.276 19.6765 190.976 19.8763 190.761 19.738C190.546 19.5997 190.569 18.9467 190.83 17.7791C190.492 16.9801 189.97 16.4347 189.263 16.1428C188.572 15.8508 187.803 15.7049 186.958 15.7049C186.113 15.7049 185.291 15.751 184.492 15.8432C184.154 15.8739 183.839 15.8969 183.548 15.9123C183.501 17.5409 183.286 19.6689 182.902 22.2962C182.533 24.9234 181.996 27.7505 181.289 30.7772C180.582 33.804 179.714 36.7309 178.685 39.5579C177.671 42.3696 176.495 44.7741 175.159 46.7714C173.822 48.7534 172.339 50.0133 170.711 50.551C168.775 51.1656 166.977 51.0504 165.318 50.2053C163.658 49.3757 162.429 48.0543 161.63 46.2413C161.139 44.6127 161.216 42.9995 161.861 41.4016C162.506 39.8037 163.566 38.5669 165.041 37.6911C166.701 36.8307 168.383 36.6694 170.088 37.2072C171.809 37.7295 173.292 38.6591 174.536 39.9958C177.409 32.4212 179.184 24.6008 179.86 16.5346C174.944 17.6101 170.449 19.6151 166.378 22.5497C166.132 22.7187 165.955 22.7417 165.848 22.6188C165.756 22.4959 165.71 22.3192 165.71 22.0887C165.71 21.8429 165.725 21.6355 165.756 21.4665C165.909 20.4371 166.34 19.546 167.046 18.7931C168.982 17.395 171.033 16.1812 173.2 15.1518C174.705 14.445 176.572 13.7613 178.8 13.1006C181.028 12.44 183.263 11.9944 185.506 11.764C187.75 11.5335 189.655 11.7102 191.222 12.294ZM172.278 44.098C172.508 43.7907 172.631 43.3529 172.647 42.7844C172.677 42.2159 172.6 41.6782 172.416 41.1711C172.247 40.6488 171.986 40.3031 171.633 40.1341C170.818 39.919 169.966 39.796 169.074 39.7653C168.183 39.7346 167.354 39.919 166.585 40.3184C165.894 40.7486 165.295 41.5245 164.788 42.6461C164.281 43.7677 164.066 44.8739 164.142 45.9648C164.235 47.0557 164.818 47.7624 165.894 48.0851C166.462 48.1926 167.062 48.1388 167.692 47.9237C168.322 47.7086 168.867 47.4321 169.328 47.0941C170.449 46.249 171.433 45.2504 172.278 44.098ZM190.83 17.756C190.83 17.7407 190.83 17.733 190.83 17.733C190.83 17.7176 190.83 17.7099 190.83 17.7099C190.83 17.7099 190.83 17.7176 190.83 17.733C190.83 17.7483 190.83 17.756 190.83 17.756ZM190.876 18.0787C190.876 18.094 190.876 18.1017 190.876 18.1017C190.876 18.1017 190.876 18.094 190.876 18.0787ZM197.145 39.2813C197.514 39.6654 197.713 40.111 197.744 40.618C197.79 41.1097 197.667 41.5706 197.375 42.0008C197.283 42.1545 197.183 42.3081 197.076 42.4617C196.261 43.3836 195.493 43.929 194.771 44.098C194.049 44.2517 193.404 44.2133 192.835 43.9828C192.282 43.737 191.852 43.4681 191.545 43.1762C191.283 43.591 191.015 43.9905 190.738 44.3746C190.262 45.0045 189.739 45.6037 189.171 46.1722C188.894 46.4795 188.579 46.7637 188.226 47.0249C187.873 47.2861 187.488 47.4398 187.074 47.4859C186.536 47.5319 186.021 47.4244 185.53 47.1632C185.038 46.902 184.6 46.5947 184.216 46.2413C183.494 45.5807 183.002 44.7817 182.741 43.8445C182.357 42.2774 182.434 40.7025 182.971 39.12C183.509 37.5375 184.416 36.2392 185.691 35.2252C185.906 35.1023 186.19 35.1484 186.544 35.3635C186.574 34.964 186.643 34.5722 186.751 34.1881C186.951 33.4045 187.335 32.7285 187.903 32.16C188.472 31.5915 189.186 31.315 190.047 31.3303C191.091 31.4686 191.998 31.9142 192.766 32.667C193.519 33.3123 193.98 34.1189 194.149 35.0869C194.226 35.9319 194.141 36.7693 193.895 37.599C193.696 38.3979 193.45 39.1892 193.158 39.9727C192.927 40.5566 192.674 41.125 192.397 41.6782C192.812 41.8625 193.189 41.9394 193.527 41.9086C193.88 41.8779 194.18 41.8011 194.425 41.6782C194.687 41.5552 194.886 41.4323 195.025 41.3094C195.163 41.1711 195.232 41.102 195.232 41.102C195.616 40.5643 195.977 40.0035 196.315 39.4196C196.315 39.4196 196.315 39.4119 196.315 39.3966C196.407 39.2429 196.538 39.1584 196.707 39.1431C196.876 39.1123 197.022 39.1584 197.145 39.2813ZM189.079 42.093C189.248 41.8318 189.417 41.5629 189.586 41.2864C188.771 40.5335 188.095 39.6962 187.558 38.7743C187.327 38.4056 187.127 38.0292 186.958 37.645C185.099 39.7039 184.385 42.1007 184.815 44.8355C184.877 45.1428 184.976 45.4347 185.115 45.7113C185.13 45.7266 185.145 45.7343 185.161 45.7343C185.284 45.719 185.407 45.6882 185.53 45.6421C185.852 45.5346 186.144 45.3733 186.405 45.1582C187.435 44.267 188.326 43.2453 189.079 42.093ZM191.015 38.3825C191.598 37.0612 191.929 35.6861 192.006 34.2572C192.021 33.9346 191.982 33.6196 191.89 33.3123C191.86 33.2509 191.837 33.1894 191.821 33.128C191.76 33.1126 191.698 33.1049 191.637 33.1049C191.391 33.1049 191.145 33.151 190.899 33.2432C190.239 33.5044 189.732 33.9423 189.378 34.5568C189.025 35.156 188.817 35.7937 188.756 36.4697C188.664 37.0228 188.687 37.5605 188.825 38.0829C188.979 38.5746 189.171 39.0125 189.401 39.3966C189.555 39.6578 189.716 39.9113 189.885 40.1571C189.931 40.2186 189.977 40.2723 190.024 40.3184C190.024 40.3338 190.024 40.3415 190.024 40.3415C190.039 40.3415 190.047 40.3415 190.047 40.3415C190.047 40.3568 190.054 40.3722 190.07 40.3876C190.07 40.3876 190.077 40.3952 190.093 40.4106C190.446 39.7499 190.753 39.0739 191.015 38.3825ZM212.839 19.8532C212.839 19.8532 212.624 20.391 212.194 21.4665C211.779 22.542 211.042 24.0554 209.982 26.0066C208.937 27.9579 207.485 30.2702 205.626 32.9436C203.767 35.617 201.416 38.5669 198.574 41.7934C198.512 42.07 198.482 42.3926 198.482 42.7613C198.482 43.1301 198.497 43.4911 198.528 43.8445C198.558 44.1825 198.589 44.4668 198.62 44.6972C198.651 44.9277 198.666 45.0429 198.666 45.0429C198.666 45.0429 198.681 45.0967 198.712 45.2043C198.743 45.2964 198.789 45.404 198.85 45.5269C198.912 45.6345 198.989 45.7343 199.081 45.8265C199.188 45.9187 199.319 45.9571 199.473 45.9417C199.703 45.911 199.995 45.7113 200.348 45.3425C200.717 44.9738 201.055 44.582 201.362 44.1672C201.685 43.7523 201.892 43.4604 201.985 43.2914C202.031 43.1992 202.092 43.0917 202.169 42.9688C202.353 42.6154 202.576 42.1698 202.837 41.6321C203.099 41.0943 203.337 40.5719 203.552 40.0649C203.644 39.8345 203.705 39.6578 203.736 39.5348C203.782 39.3966 203.805 39.289 203.805 39.2122C203.821 39.1354 203.821 39.0432 203.805 38.9356C203.805 38.8895 203.805 38.8435 203.805 38.7974C203.775 38.5515 203.752 38.3595 203.736 38.2212C203.721 38.0368 203.713 37.8986 203.713 37.8064C203.728 37.7142 203.782 37.622 203.874 37.5298C203.997 37.3762 204.205 37.1995 204.497 36.9997C204.789 36.7846 205.157 36.6003 205.603 36.4466C205.956 36.3391 206.194 36.316 206.317 36.3775C206.456 36.4236 206.555 36.5158 206.617 36.6541C206.678 37.0074 206.686 37.3992 206.64 37.8294C206.64 37.9523 206.632 38.0752 206.617 38.1982C206.586 38.5208 206.571 38.928 206.571 39.4196C206.586 39.8959 206.663 40.3338 206.801 40.7333C206.955 41.1327 207.208 41.3709 207.562 41.4477C208.146 41.5245 208.607 41.4631 208.945 41.2633C209.283 41.0636 209.552 40.8178 209.751 40.5258C209.982 40.1571 210.204 39.7884 210.42 39.4196C210.435 39.4043 210.443 39.3966 210.443 39.3966C210.535 39.2429 210.658 39.1584 210.811 39.1431C210.98 39.1123 211.134 39.1584 211.272 39.2813C211.626 39.6654 211.825 40.111 211.872 40.618C211.918 41.1097 211.795 41.5706 211.503 42.0008C211.042 42.7998 210.404 43.399 209.59 43.7984C208.76 44.1518 207.938 44.1595 207.124 43.8215C206.402 43.4066 205.964 42.7076 205.81 41.7243C205.657 42.3081 205.104 43.399 204.151 44.9968C204.151 44.9968 204.043 45.1658 203.828 45.5039C203.629 45.8265 203.344 46.2106 202.976 46.6562C202.622 47.0864 202.2 47.4859 201.708 47.8546C201.216 48.2387 200.686 48.4922 200.118 48.6151C199.565 48.7534 198.989 48.6766 198.389 48.3847C198.144 48.2771 197.905 48.1388 197.675 47.9698C196.646 47.0633 196.054 45.8726 195.9 44.3976C195.731 42.9227 195.739 41.5476 195.923 40.2723C196.123 38.782 196.461 37.3224 196.937 35.8935C197.414 34.4493 197.959 33.0435 198.574 31.676C200.817 26.6212 203.867 22.1041 207.723 18.1248C208.061 17.7714 208.361 17.4871 208.622 17.272C208.899 17.0569 209.129 16.8956 209.313 16.7881C209.513 16.6652 209.674 16.5807 209.797 16.5346C209.936 16.4885 210.035 16.4654 210.097 16.4654C210.158 16.4654 210.189 16.4654 210.189 16.4654C210.189 16.4654 210.251 16.4731 210.373 16.4885C210.496 16.4885 210.658 16.5346 210.857 16.6267C211.073 16.7036 211.303 16.8495 211.549 17.0646C211.81 17.2797 212.079 17.5793 212.355 17.9634C212.601 18.3475 212.763 18.6702 212.839 18.9314C212.916 19.1772 212.947 19.3769 212.932 19.5306C212.916 19.6689 212.893 19.7687 212.863 19.8302C212.863 19.8456 212.855 19.8532 212.839 19.8532ZM208.507 21.0977C207.109 22.4652 205.856 24.04 204.75 25.8223C203.644 27.6045 202.699 29.356 201.915 31.0768C201.147 32.7976 200.556 34.2342 200.141 35.3865C199.741 36.5388 199.542 37.115 199.542 37.115C201.677 34.5799 203.437 32.1216 204.819 29.7401C206.217 27.3433 207.247 25.3536 207.908 23.7711C208.584 22.1732 208.922 21.3743 208.922 21.3743C208.952 21.3128 208.975 21.2437 208.991 21.1669C209.006 21.0747 209.006 20.9979 208.991 20.9364C208.991 20.8596 208.952 20.8289 208.875 20.8442C208.799 20.8596 208.676 20.9441 208.507 21.0977Z" fill="white"/>
<mask id="mask0_29_14" style="mask-type:alpha" maskUnits="userSpaceOnUse" x="67" y="11" width="147" height="41">
<path d="M92.2869 31.0768C92.3791 33.9192 92.0027 36.7386 91.1577 39.5348C90.3126 42.3311 88.9683 44.7971 87.1245 46.9327C85.2962 49.053 82.9224 50.5433 80.0032 51.4037C79.1889 51.6342 78.3592 51.7648 77.5142 51.7955C76.6845 51.8263 75.8933 51.6957 75.1404 51.4037C74.8024 51.2808 74.4874 51.1195 74.1955 50.9198C73.2276 50.2437 72.5823 49.3296 72.2596 48.1772C72.1828 48.3923 72.0983 48.6612 72.0061 48.9839C71.9139 49.3219 71.8294 49.6368 71.7526 49.9288C71.7526 49.9288 71.7449 49.9441 71.7296 49.9749C71.7296 50.0056 71.7142 50.044 71.6835 50.0901C71.6527 50.1515 71.6066 50.2053 71.5452 50.2514C71.4837 50.3129 71.3915 50.3666 71.2686 50.4127C71.115 50.4588 70.9613 50.4896 70.8077 50.5049C70.6541 50.5203 70.5235 50.5203 70.4159 50.5049C70.3237 50.5049 70.2776 50.5049 70.2776 50.5049C69.2943 50.3513 68.6413 50.0286 68.3187 49.537C67.996 49.0453 67.8578 48.4922 67.9039 47.8776C67.9499 47.2784 68.0345 46.7484 68.1574 46.2874C68.2035 46.1338 68.2342 46.0032 68.2496 45.8957C68.3571 45.4501 68.8411 43.8292 69.7015 41.0329C70.5772 38.2366 71.5682 35.0792 72.6745 31.5608C73.796 28.0424 74.787 24.9311 75.6474 22.227C76.5232 19.5229 76.9611 18.1709 76.9611 18.1709C77.0994 17.7407 77.2684 17.4641 77.4681 17.3412C77.253 17.3565 77.0302 17.3873 76.7998 17.4334C74.5566 17.8175 72.4517 18.6011 70.4851 19.7841C70.2853 19.8916 70.0779 19.9762 69.8628 20.0376C69.6477 20.0837 69.4633 20.0376 69.3097 19.8993C69.1868 19.7457 69.1253 19.569 69.1253 19.3693C69.0178 18.1248 69.3635 17.0032 70.1624 16.0045C70.9613 15.0058 71.96 14.2837 73.1584 13.8381C73.266 13.8074 73.3658 13.7767 73.458 13.7459C75.8088 12.9777 78.1134 12.8702 80.3719 13.4233C82.6459 13.9764 84.6816 15.0903 86.4792 16.765C88.4459 18.6395 89.8901 20.8212 90.812 23.3102C91.7338 25.7992 92.2255 28.3881 92.2869 31.0768ZM81.8469 46.4718C81.8776 46.1338 81.7701 45.8496 81.5243 45.6191V45.596C80.7561 44.8739 79.9418 44.413 79.0814 44.2133C78.0059 44.0135 77.0456 44.1825 76.2006 44.7203C76.0162 44.8586 75.8549 45.0122 75.7166 45.1812C75.4861 45.4731 75.3325 45.8188 75.2557 46.2183C75.1635 46.8943 75.2787 47.4244 75.6013 47.8085C75.9086 48.1926 76.3926 48.4077 77.0533 48.4538C77.1455 48.4538 77.2376 48.4538 77.3298 48.4538C77.9444 48.4538 78.559 48.3539 79.1735 48.1542C79.8035 47.9545 80.3489 47.7394 80.8098 47.5089C80.9788 47.4321 81.1478 47.3476 81.3169 47.2554C81.6088 47.071 81.7855 46.8098 81.8469 46.4718ZM88.4382 36.0548C88.8991 34.0268 89.1142 31.9449 89.0835 29.8093C89.0681 27.6736 88.6917 25.6225 87.9542 23.6559C87.0938 21.5203 85.8032 19.907 84.0824 18.8161C82.3616 17.7253 80.3873 17.2183 78.1595 17.2951C78.2363 17.3258 78.2978 17.3642 78.3439 17.4103C78.4053 17.441 78.4514 17.4718 78.4821 17.5025C78.5129 17.5179 78.5282 17.5256 78.5282 17.5256C78.5282 17.5256 78.6588 17.6408 78.92 17.8712C79.1812 18.1017 79.5423 18.5012 80.0032 19.0697C80.2337 19.4384 80.2414 20.1221 80.0263 21.1208C79.8112 22.1041 79.5116 23.218 79.1274 24.4625C78.8202 25.4612 78.5513 26.4291 78.3208 27.3664C78.2286 27.7505 78.098 28.2114 77.929 28.7491C77.76 29.2715 77.591 29.8016 77.422 30.3393C77.253 30.8617 77.107 31.3073 76.9841 31.676C76.8766 32.0294 76.8228 32.2061 76.8228 32.2061C76.7613 32.3751 76.6692 32.644 76.5462 33.0127C76.4387 33.3661 76.3158 33.7502 76.1775 34.165C76.0546 34.5645 75.947 34.9179 75.8549 35.2252C75.7627 35.5171 75.7166 35.6631 75.7166 35.6631L73.5733 43.084C74.4183 42.2082 75.4247 41.6244 76.5923 41.3325C78.7433 40.9023 80.7253 41.3325 82.5383 42.6231C83.3833 43.2069 83.9902 43.9674 84.359 44.9047C84.4973 44.7356 84.6278 44.559 84.7508 44.3746C86.1182 42.4694 87.1553 40.4029 87.862 38.1751C88.0771 37.4684 88.2692 36.7616 88.4382 36.0548ZM102.105 39.3044C102.228 39.3812 102.335 39.4811 102.427 39.604C102.719 40.0956 102.788 40.6257 102.635 41.1942C102.481 41.7319 102.235 42.2236 101.897 42.6692C101.406 43.3759 100.814 43.9905 100.123 44.5129C99.4159 45.0506 98.6247 45.3425 97.7489 45.3886C96.7656 45.3886 96.0358 45.0813 95.5595 44.4668C95.0986 43.8522 94.8297 43.1147 94.7529 42.2543C94.6761 41.3786 94.7375 40.5566 94.9373 39.7884C95.1063 39.2352 95.3137 38.6975 95.5595 38.1751C95.7593 37.7449 95.9359 37.307 96.0896 36.8615C96.0896 36.8461 96.0896 36.8307 96.0896 36.8154C96.1818 36.5542 96.2432 36.3007 96.274 36.0548C96.3047 35.7937 96.2279 35.5786 96.0435 35.4095C95.8898 35.2866 95.7669 35.1944 95.6747 35.133C95.5826 35.0715 95.5134 35.0331 95.4673 35.0178C95.4212 35.0024 95.3982 34.9947 95.3982 34.9947C95.3982 34.9947 95.2138 35.3865 94.8451 36.1701C94.4917 36.9383 94.0385 37.8448 93.4853 38.8895C92.9322 39.919 92.3561 40.8869 91.7569 41.7934C91.6339 41.9778 91.5034 42.0853 91.3651 42.116C91.2268 42.1468 91.1039 42.0776 90.9963 41.9086L90.351 40.9407C90.1052 40.5566 90.1052 40.1725 90.351 39.7884C90.7966 39.0355 91.2191 38.2596 91.6186 37.4607C92.0181 36.6617 92.3177 36.0472 92.5174 35.617C92.5942 35.4787 92.648 35.3788 92.6787 35.3174C92.9245 34.8103 93.1012 34.4493 93.2088 34.2342C93.3163 34.0344 93.3855 33.8962 93.4162 33.8193C93.493 33.6042 93.5084 33.4045 93.4623 33.2201C93.4469 33.1433 93.4392 33.0588 93.4392 32.9666C93.4392 32.9666 93.4469 32.8591 93.4623 32.644C93.493 32.4135 93.5468 32.1293 93.6236 31.7913C93.7158 31.4533 93.8541 31.1076 94.0385 30.7542C94.2382 30.3854 94.4994 30.0474 94.822 29.7401C95.1754 29.4636 95.5134 29.3176 95.8361 29.3023C96.1587 29.2869 96.4199 29.3099 96.6196 29.3714C96.6504 29.3714 96.6811 29.3791 96.7118 29.3944C96.8194 29.3944 96.9653 29.4482 97.1497 29.5558C97.3495 29.648 97.4954 29.8093 97.5876 30.0397C97.6798 30.2548 97.6414 30.5621 97.4724 30.9616C97.3187 31.2996 97.2112 31.5685 97.1497 31.7682C97.0883 31.9526 97.0498 32.0909 97.0345 32.1831C97.0345 32.2752 97.0345 32.3444 97.0345 32.3905C97.0345 32.4058 97.0345 32.4289 97.0345 32.4596C97.0191 32.6747 97.0652 32.8591 97.1728 33.0127C97.2957 33.1664 97.434 33.2893 97.5876 33.3815C97.6337 33.4122 97.6951 33.4506 97.772 33.4967C97.9871 33.635 98.2252 33.804 98.4864 34.0037C98.7476 34.1881 98.9243 34.3878 99.0165 34.6029C99.2469 35.156 99.2623 35.786 99.0626 36.4927C99.0011 36.6617 98.9012 36.8999 98.763 37.2072C98.64 37.5144 98.5018 37.8294 98.3481 38.1521C98.2099 38.4747 98.0869 38.7513 97.9794 38.9817C97.8872 39.1968 97.8411 39.3044 97.8411 39.3044C97.626 39.7807 97.457 40.2723 97.3341 40.7794C97.3034 40.9023 97.2726 41.0252 97.2419 41.1481C97.119 41.5168 97.0498 41.8779 97.0345 42.2313C97.0345 42.5693 97.1651 42.8228 97.4263 42.9918C97.6721 43.0994 97.9256 43.1147 98.1868 43.0379C98.9243 42.7921 99.5158 42.3388 99.9614 41.6782C100.299 41.2019 100.591 40.7025 100.837 40.1801C100.914 40.0111 100.998 39.8498 101.091 39.6962C101.167 39.5118 101.29 39.3658 101.459 39.2583C101.674 39.1507 101.89 39.1661 102.105 39.3044ZM115.725 39.3966C116.109 39.8114 116.263 40.3031 116.186 40.8715C116.078 41.4093 115.871 41.9009 115.564 42.3465C114.442 43.9598 113.006 45.2196 111.254 46.1261C110.01 46.756 108.696 47.1786 107.313 47.3937C106.069 47.6088 105.039 47.578 104.225 47.3015C103.426 47.0096 102.796 46.5947 102.335 46.057C101.874 45.5039 101.536 44.9354 101.321 44.3515C101.121 43.7523 100.998 43.2376 100.952 42.8074C100.891 42.3772 100.86 42.1621 100.86 42.1621C100.753 40.595 101.037 39.12 101.713 37.7372C102.404 36.3544 103.211 35.156 104.133 34.142C105.07 33.128 105.861 32.3982 106.507 31.9526C107.106 31.5378 107.651 31.3457 108.143 31.3764C108.65 31.4072 109.08 31.5454 109.433 31.7913C109.787 32.0217 110.056 32.2368 110.24 32.4366C110.286 32.4827 110.332 32.5287 110.378 32.5748C110.593 32.7592 110.778 32.9897 110.931 33.2662C111.1 33.5428 111.154 33.9269 111.093 34.4186C111.031 34.8948 110.778 35.5478 110.332 36.3775C109.564 37.7295 108.673 38.928 107.659 39.9727C106.66 41.0175 105.769 41.8472 104.985 42.4617C104.217 43.0763 103.833 43.3836 103.833 43.3836C103.879 43.6141 104.018 43.9137 104.248 44.2824C104.494 44.6511 104.77 44.9507 105.078 45.1812C105.554 45.4885 106.084 45.6114 106.668 45.55C107.252 45.4885 107.782 45.3579 108.258 45.1582C110.962 44.0519 113.067 42.2466 114.573 39.7423C114.65 39.6194 114.726 39.5041 114.803 39.3966C114.895 39.289 115.011 39.2199 115.149 39.1892C115.303 39.1738 115.449 39.2122 115.587 39.3044C115.633 39.3351 115.679 39.3658 115.725 39.3966ZM108.442 33.635C107.367 34.3725 106.507 35.133 105.861 35.9166C105.231 36.6848 104.763 37.3992 104.455 38.0599C104.148 38.7052 103.948 39.2352 103.856 39.6501C103.764 40.0649 103.718 40.2723 103.718 40.2723C104.932 39.4119 105.9 38.5362 106.622 37.645C107.359 36.7539 107.897 35.9857 108.235 35.3404C108.573 34.6797 108.757 34.288 108.788 34.165C108.865 33.9346 108.857 33.7733 108.765 33.6811C108.673 33.5735 108.565 33.5582 108.442 33.635ZM127.202 39.4196C127.218 39.4196 127.225 39.4119 127.225 39.3966C127.317 39.2429 127.44 39.1584 127.594 39.1431C127.763 39.1123 127.917 39.1584 128.055 39.2813C128.424 39.6654 128.623 40.111 128.654 40.618C128.7 41.1097 128.577 41.5706 128.285 42.0008C128.132 42.2313 127.978 42.4541 127.824 42.6692C127.778 42.7306 127.725 42.7921 127.663 42.8535C127.187 43.591 126.595 44.1902 125.889 44.6511C125.889 44.6665 125.812 44.7049 125.658 44.7664C125.52 44.8278 125.328 44.8893 125.082 44.9507C124.836 44.9968 124.567 45.0122 124.275 44.9968C123.999 44.9815 123.715 44.8893 123.423 44.7203C123.131 44.5513 122.862 44.2747 122.616 43.8906C122.386 43.5065 122.193 42.9841 122.04 42.3235C121.348 43.3375 120.557 44.267 119.666 45.1121C119.62 45.1735 119.566 45.2196 119.505 45.2504C118.921 45.7113 118.283 45.911 117.592 45.8496C116.916 45.7881 116.309 45.4962 115.771 44.9738C114.895 43.9751 114.435 42.8074 114.388 41.4707C114.342 39.5348 114.819 37.7295 115.817 36.0548C116.77 34.4723 117.991 33.1126 119.482 31.9756C120.987 30.8387 122.693 30.2548 124.598 30.2241C125.412 30.2395 126.027 30.3547 126.442 30.5698C126.857 30.7695 127.125 31.0154 127.248 31.3073C127.371 31.5838 127.425 31.8527 127.41 32.1139C127.394 32.3597 127.364 32.5441 127.317 32.667C127.317 32.6978 127.31 32.7208 127.294 32.7362C127.294 32.7362 127.271 32.7976 127.225 32.9205C127.195 33.0281 127.125 33.1587 127.018 33.3123C126.926 33.466 126.795 33.6042 126.626 33.7272C126.472 33.8347 126.273 33.8885 126.027 33.8885C125.827 33.8731 125.635 33.8117 125.451 33.7041C125.282 33.5812 125.113 33.4506 124.944 33.3123C124.821 33.2048 124.706 33.1126 124.598 33.0358C124.045 32.6209 123.423 32.5595 122.731 32.8514C122.055 33.128 121.179 33.8731 120.104 35.0869C119.059 36.2699 118.276 37.307 117.753 38.1982C117.231 39.0739 116.893 39.8268 116.739 40.4567C116.586 41.0713 116.547 41.5783 116.624 41.9778C116.701 42.3619 116.816 42.6538 116.97 42.8535C117.123 43.0533 117.231 43.1762 117.292 43.2223C117.415 43.3298 117.538 43.399 117.661 43.4297C117.784 43.4451 117.899 43.4451 118.007 43.4297C118.13 43.399 118.222 43.3682 118.283 43.3375C118.36 43.3068 118.398 43.2914 118.398 43.2914C118.398 43.2914 118.621 43.1147 119.067 42.7613C119.528 42.3926 120.027 41.7857 120.565 40.9407C121.133 39.9574 121.648 39.0432 122.109 38.1982C122.508 37.4453 122.846 36.8461 123.123 36.4005C123.154 36.3391 123.192 36.2776 123.238 36.2162C123.484 35.8167 123.745 35.4095 124.022 34.9947C124.314 34.5799 124.56 34.3033 124.759 34.165C124.99 34.0729 125.282 34.0729 125.635 34.165C126.004 34.2572 126.296 34.4186 126.511 34.649C126.634 34.8027 126.68 34.9947 126.649 35.2252C126.634 35.4403 126.58 35.6477 126.488 35.8474C126.457 35.9242 126.388 36.0933 126.28 36.3544C126.173 36.6003 126.058 36.8768 125.935 37.1841C125.812 37.4914 125.704 37.7603 125.612 37.9907C125.52 38.2212 125.474 38.3364 125.474 38.3364C125.474 38.3364 125.405 38.4901 125.266 38.7974C125.143 39.0893 124.997 39.4503 124.828 39.8805C124.675 40.2954 124.529 40.7102 124.391 41.125C124.268 41.5245 124.206 41.8472 124.206 42.093C124.206 42.2159 124.214 42.3235 124.229 42.4156C124.26 42.4925 124.291 42.5539 124.321 42.6C124.352 42.6307 124.383 42.6538 124.414 42.6692C124.444 42.6845 124.475 42.6922 124.506 42.6922C124.537 42.6922 124.567 42.6922 124.598 42.6922C124.629 42.6768 124.652 42.6615 124.667 42.6461C124.682 42.6307 124.69 42.6231 124.69 42.6231C124.69 42.6231 124.729 42.5923 124.805 42.5309C124.898 42.4694 124.997 42.3926 125.105 42.3004C125.228 42.2082 125.343 42.1007 125.451 41.9778C125.697 41.6858 125.981 41.3094 126.303 40.8485C126.626 40.3722 126.926 39.8959 127.202 39.4196ZM150.479 39.3044C150.541 39.3505 150.594 39.3966 150.64 39.4427C151.04 39.9804 151.17 40.5719 151.032 41.2172C150.879 41.6935 150.64 42.1391 150.318 42.5539C149.365 43.906 148.359 45.2273 147.299 46.5179C147.283 46.5486 147.268 46.5794 147.253 46.6101C146.868 47.0864 146.408 47.5934 145.87 48.1311C145.347 48.6843 144.771 49.1221 144.141 49.4448C143.511 49.7674 142.866 49.8289 142.205 49.6292C141.76 49.4602 141.422 49.1529 141.191 48.7073C140.715 47.724 140.584 46.6946 140.8 45.6191C141.03 44.2056 141.314 42.8074 141.652 41.4247C142.267 38.9203 143.012 36.462 143.888 34.0498C143.903 34.0344 143.911 34.0268 143.911 34.0268C144.402 32.5825 144.164 32.4519 143.196 33.635C143.15 33.6811 143.104 33.7348 143.058 33.7963C142.951 33.9499 142.843 34.0882 142.735 34.2111C139.678 37.96 137.166 42.0392 135.199 46.4488C135.122 46.5563 134.969 46.5717 134.738 46.4949C134.523 46.4027 134.277 46.2644 134.001 46.08C133.74 45.8803 133.509 45.6729 133.309 45.4578C133.125 45.2427 133.041 45.066 133.056 44.9277C133.164 44.0519 133.271 43.1839 133.379 42.3235C133.486 41.4631 133.594 40.595 133.701 39.7192C133.717 39.5963 133.732 39.458 133.747 39.3044C133.778 39.0586 133.809 38.805 133.84 38.5439C133.855 37.7295 133.563 37.599 132.964 38.1521C132.764 38.3518 132.587 38.5592 132.434 38.7743C132.418 38.7897 132.411 38.7974 132.411 38.7974C132.011 39.3197 131.627 39.8575 131.258 40.4106C129.753 42.6845 128.608 45.1198 127.824 47.7163C127.778 47.8239 127.64 47.8315 127.41 47.7394C127.195 47.6625 126.949 47.5319 126.672 47.3476C126.396 47.1632 126.157 46.9635 125.958 46.7484C125.758 46.5333 125.666 46.3489 125.681 46.1953C126.25 41.3094 127.525 36.608 129.507 32.0909C129.568 31.9987 129.714 31.9987 129.945 32.0909C130.191 32.1677 130.452 32.306 130.728 32.5057C131.02 32.6901 131.258 32.8975 131.443 33.128C131.627 33.3584 131.681 33.5658 131.604 33.7502C131.097 34.9025 130.636 36.0702 130.221 37.2533C130.621 36.6387 131.143 36.1624 131.788 35.8244C132.234 35.6554 132.672 35.64 133.102 35.7783C133.532 35.9012 133.924 36.0933 134.277 36.3544C135.107 36.8922 135.66 37.622 135.937 38.5439C135.983 38.7436 136.014 38.9356 136.029 39.12C136.398 38.5054 136.774 37.9062 137.158 37.3224C138.526 35.1714 140.054 33.151 141.744 31.2612C142.113 30.8156 142.559 30.493 143.081 30.2932C143.45 30.2164 143.811 30.2472 144.164 30.3854C144.518 30.5083 144.84 30.6774 145.132 30.8925C145.808 31.3227 146.285 31.9142 146.561 32.667C146.715 33.2662 146.684 33.8578 146.469 34.4416C146.208 35.2252 145.939 36.0011 145.662 36.7693C145.263 37.8601 144.894 38.9741 144.556 40.111C144.003 42.0469 143.542 43.9905 143.173 45.9417C143.158 45.9878 143.143 46.0493 143.127 46.1261C143.081 46.2951 143.043 46.4795 143.012 46.6792C142.981 46.879 142.997 47.0403 143.058 47.1632C143.12 47.2708 143.258 47.2861 143.473 47.2093C143.857 47.0249 144.18 46.756 144.441 46.4027C146.269 44.2517 147.959 41.9931 149.511 39.627C149.588 39.5041 149.672 39.3966 149.765 39.3044C149.872 39.2122 149.995 39.1584 150.133 39.1431C150.256 39.1584 150.371 39.2122 150.479 39.3044ZM191.294 12.294C192.185 12.801 192.708 13.4924 192.861 14.3682C193.03 15.2286 192.984 16.1044 192.723 16.9955C192.462 17.8712 192.132 18.5857 191.732 19.1388C191.348 19.6765 191.048 19.8763 190.833 19.738C190.618 19.5997 190.641 18.9467 190.902 17.7791C190.564 16.9801 190.042 16.4347 189.335 16.1428C188.644 15.8508 187.876 15.7049 187.031 15.7049C186.186 15.7049 185.364 15.751 184.565 15.8432C184.227 15.8739 183.912 15.8969 183.62 15.9123C183.574 17.5409 183.359 19.6689 182.974 22.2962C182.606 24.9234 182.068 27.7505 181.361 30.7772C180.654 33.804 179.786 36.7309 178.757 39.5579C177.743 42.3696 176.568 44.7741 175.231 46.7714C173.894 48.7534 172.412 50.0133 170.783 50.551C168.847 51.1656 167.049 51.0504 165.39 50.2053C163.731 49.3757 162.502 48.0543 161.703 46.2413C161.211 44.6127 161.288 42.9995 161.933 41.4016C162.578 39.8037 163.639 38.5669 165.113 37.6911C166.773 36.8307 168.455 36.6694 170.161 37.2072C171.881 37.7295 173.364 38.6591 174.609 39.9958C177.482 32.4212 179.256 24.6008 179.932 16.5346C175.016 17.6101 170.522 19.6151 166.45 22.5497C166.204 22.7187 166.028 22.7417 165.92 22.6188C165.828 22.4959 165.782 22.3192 165.782 22.0887C165.782 21.8429 165.797 21.6355 165.828 21.4665C165.982 20.4371 166.412 19.546 167.119 18.7931C169.054 17.395 171.106 16.1812 173.272 15.1518C174.778 14.445 176.644 13.7613 178.872 13.1006C181.1 12.44 183.336 11.9944 185.579 11.764C187.822 11.5335 189.727 11.7102 191.294 12.294ZM172.35 44.098C172.581 43.7907 172.703 43.3529 172.719 42.7844C172.75 42.2159 172.673 41.6782 172.488 41.1711C172.319 40.6488 172.058 40.3031 171.705 40.1341C170.89 39.919 170.038 39.796 169.147 39.7653C168.255 39.7346 167.426 39.919 166.658 40.3184C165.966 40.7486 165.367 41.5245 164.86 42.6461C164.353 43.7677 164.138 44.8739 164.215 45.9648C164.307 47.0557 164.891 47.7624 165.966 48.0851C166.535 48.1926 167.134 48.1388 167.764 47.9237C168.394 47.7086 168.939 47.4321 169.4 47.0941C170.522 46.249 171.505 45.2504 172.35 44.098ZM190.902 17.756C190.902 17.7407 190.902 17.733 190.902 17.733C190.902 17.7176 190.902 17.7099 190.902 17.7099C190.902 17.7099 190.902 17.7176 190.902 17.733C190.902 17.7483 190.902 17.756 190.902 17.756ZM190.948 18.0787C190.948 18.094 190.948 18.1017 190.948 18.1017C190.948 18.1017 190.948 18.094 190.948 18.0787ZM197.217 39.2813C197.586 39.6654 197.786 40.111 197.816 40.618C197.862 41.1097 197.739 41.5706 197.448 42.0008C197.355 42.1545 197.256 42.3081 197.148 42.4617C196.334 43.3836 195.565 43.929 194.843 44.098C194.121 44.2517 193.476 44.2133 192.907 43.9828C192.354 43.737 191.924 43.4681 191.617 43.1762C191.356 43.591 191.087 43.9905 190.81 44.3746C190.334 45.0045 189.812 45.6037 189.243 46.1722C188.967 46.4795 188.652 46.7637 188.298 47.0249C187.945 47.2861 187.561 47.4398 187.146 47.4859C186.608 47.5319 186.093 47.4244 185.602 47.1632C185.11 46.902 184.672 46.5947 184.288 46.2413C183.566 45.5807 183.074 44.7817 182.813 43.8445C182.429 42.2774 182.506 40.7025 183.044 39.12C183.581 37.5375 184.488 36.2392 185.763 35.2252C185.978 35.1023 186.262 35.1484 186.616 35.3635C186.647 34.964 186.716 34.5722 186.823 34.1881C187.023 33.4045 187.407 32.7285 187.976 32.16C188.544 31.5915 189.258 31.315 190.119 31.3303C191.164 31.4686 192.07 31.9142 192.838 32.667C193.591 33.3123 194.052 34.1189 194.221 35.0869C194.298 35.9319 194.213 36.7693 193.968 37.599C193.768 38.3979 193.522 39.1892 193.23 39.9727C193 40.5566 192.746 41.125 192.47 41.6782C192.884 41.8625 193.261 41.9394 193.599 41.9086C193.952 41.8779 194.252 41.8011 194.498 41.6782C194.759 41.5552 194.959 41.4323 195.097 41.3094C195.235 41.1711 195.304 41.102 195.304 41.102C195.688 40.5643 196.049 40.0035 196.387 39.4196C196.387 39.4196 196.387 39.4119 196.387 39.3966C196.48 39.2429 196.61 39.1584 196.779 39.1431C196.948 39.1123 197.094 39.1584 197.217 39.2813ZM189.151 42.093C189.32 41.8318 189.489 41.5629 189.658 41.2864C188.844 40.5335 188.168 39.6962 187.63 38.7743C187.399 38.4056 187.2 38.0292 187.031 37.645C185.172 39.7039 184.457 42.1007 184.887 44.8355C184.949 45.1428 185.049 45.4347 185.187 45.7113C185.202 45.7266 185.218 45.7343 185.233 45.7343C185.356 45.719 185.479 45.6882 185.602 45.6421C185.924 45.5346 186.216 45.3733 186.477 45.1582C187.507 44.267 188.398 43.2453 189.151 42.093ZM191.087 38.3825C191.671 37.0612 192.001 35.6861 192.078 34.2572C192.093 33.9346 192.055 33.6196 191.963 33.3123C191.932 33.2509 191.909 33.1894 191.893 33.128C191.832 33.1126 191.77 33.1049 191.709 33.1049C191.463 33.1049 191.217 33.151 190.972 33.2432C190.311 33.5044 189.804 33.9423 189.45 34.5568C189.097 35.156 188.89 35.7937 188.828 36.4697C188.736 37.0228 188.759 37.5605 188.897 38.0829C189.051 38.5746 189.243 39.0125 189.474 39.3966C189.627 39.6578 189.788 39.9113 189.958 40.1571C190.004 40.2186 190.05 40.2723 190.096 40.3184C190.096 40.3338 190.096 40.3415 190.096 40.3415C190.111 40.3415 190.119 40.3415 190.119 40.3415C190.119 40.3568 190.127 40.3722 190.142 40.3876C190.142 40.3876 190.15 40.3952 190.165 40.4106C190.518 39.7499 190.826 39.0739 191.087 38.3825ZM212.912 19.8532C212.912 19.8532 212.697 20.391 212.266 21.4665C211.852 22.542 211.114 24.0554 210.054 26.0066C209.009 27.9579 207.557 30.2702 205.698 32.9436C203.839 35.617 201.488 38.5669 198.646 41.7934C198.585 42.07 198.554 42.3926 198.554 42.7613C198.554 43.1301 198.569 43.4911 198.6 43.8445C198.631 44.1825 198.661 44.4668 198.692 44.6972C198.723 44.9277 198.738 45.0429 198.738 45.0429C198.738 45.0429 198.754 45.0967 198.784 45.2043C198.815 45.2964 198.861 45.404 198.923 45.5269C198.984 45.6345 199.061 45.7343 199.153 45.8265C199.261 45.9187 199.391 45.9571 199.545 45.9417C199.775 45.911 200.067 45.7113 200.421 45.3425C200.789 44.9738 201.127 44.582 201.435 44.1672C201.757 43.7523 201.965 43.4604 202.057 43.2914C202.103 43.1992 202.164 43.0917 202.241 42.9688C202.426 42.6154 202.648 42.1698 202.91 41.6321C203.171 41.0943 203.409 40.5719 203.624 40.0649C203.716 39.8345 203.778 39.6578 203.808 39.5348C203.854 39.3966 203.878 39.289 203.878 39.2122C203.893 39.1354 203.893 39.0432 203.878 38.9356C203.878 38.8895 203.878 38.8435 203.878 38.7974C203.847 38.5515 203.824 38.3595 203.808 38.2212C203.793 38.0368 203.785 37.8986 203.785 37.8064C203.801 37.7142 203.854 37.622 203.947 37.5298C204.07 37.3762 204.277 37.1995 204.569 36.9997C204.861 36.7846 205.23 36.6003 205.675 36.4466C206.029 36.3391 206.267 36.316 206.39 36.3775C206.528 36.4236 206.628 36.5158 206.689 36.6541C206.751 37.0074 206.758 37.3992 206.712 37.8294C206.712 37.9523 206.705 38.0752 206.689 38.1982C206.658 38.5208 206.643 38.928 206.643 39.4196C206.658 39.8959 206.735 40.3338 206.874 40.7333C207.027 41.1327 207.281 41.3709 207.634 41.4477C208.218 41.5245 208.679 41.4631 209.017 41.2633C209.355 41.0636 209.624 40.8178 209.823 40.5258C210.054 40.1571 210.277 39.7884 210.492 39.4196C210.507 39.4043 210.515 39.3966 210.515 39.3966C210.607 39.2429 210.73 39.1584 210.884 39.1431C211.053 39.1123 211.206 39.1584 211.345 39.2813C211.698 39.6654 211.898 40.111 211.944 40.618C211.99 41.1097 211.867 41.5706 211.575 42.0008C211.114 42.7998 210.476 43.399 209.662 43.7984C208.832 44.1518 208.01 44.1595 207.196 43.8215C206.474 43.4066 206.036 42.7076 205.883 41.7243C205.729 42.3081 205.176 43.399 204.223 44.9968C204.223 44.9968 204.116 45.1658 203.901 45.5039C203.701 45.8265 203.417 46.2106 203.048 46.6562C202.694 47.0864 202.272 47.4859 201.78 47.8546C201.289 48.2387 200.759 48.4922 200.19 48.6151C199.637 48.7534 199.061 48.6766 198.462 48.3847C198.216 48.2771 197.978 48.1388 197.747 47.9698C196.718 47.0633 196.126 45.8726 195.973 44.3976C195.804 42.9227 195.811 41.5476 195.996 40.2723C196.195 38.782 196.533 37.3224 197.01 35.8935C197.486 34.4493 198.031 33.0435 198.646 31.676C200.889 26.6212 203.939 22.1041 207.795 18.1248C208.133 17.7714 208.433 17.4871 208.694 17.272C208.971 17.0569 209.201 16.8956 209.386 16.7881C209.585 16.6652 209.747 16.5807 209.87 16.5346C210.008 16.4885 210.108 16.4654 210.169 16.4654C210.231 16.4654 210.261 16.4654 210.261 16.4654C210.261 16.4654 210.323 16.4731 210.446 16.4885C210.569 16.4885 210.73 16.5346 210.93 16.6267C211.145 16.7036 211.375 16.8495 211.621 17.0646C211.882 17.2797 212.151 17.5793 212.428 17.9634C212.674 18.3475 212.835 18.6702 212.912 18.9314C212.989 19.1772 213.019 19.3769 213.004 19.5306C212.989 19.6689 212.965 19.7687 212.935 19.8302C212.935 19.8456 212.927 19.8532 212.912 19.8532ZM208.579 21.0977C207.181 22.4652 205.929 24.04 204.822 25.8223C203.716 27.6045 202.771 29.356 201.988 31.0768C201.219 32.7976 200.628 34.2342 200.213 35.3865C199.814 36.5388 199.614 37.115 199.614 37.115C201.75 34.5799 203.509 32.1216 204.892 29.7401C206.29 27.3433 207.319 25.3536 207.98 23.7711C208.656 22.1732 208.994 21.3743 208.994 21.3743C209.025 21.3128 209.048 21.2437 209.063 21.1669C209.078 21.0747 209.078 20.9979 209.063 20.9364C209.063 20.8596 209.025 20.8289 208.948 20.8442C208.871 20.8596 208.748 20.9441 208.579 21.0977Z" fill="#D25099"/>
</mask>
<g mask="url(#mask0_29_14)">
<ellipse cx="70.1767" cy="20.2956" rx="17.7783" ry="15.261" fill="white"/>
<ellipse cx="141.604" cy="27.2181" rx="14.0024" ry="14.6317" fill="white"/>
<ellipse cx="101.485" cy="23.4422" rx="16.677" ry="15.8903" fill="white"/>
<ellipse cx="123.826" cy="26.9034" rx="11.3278" ry="14.6317" fill="white"/>
<ellipse cx="168.351" cy="17.7783" rx="17.7783" ry="15.261" fill="white"/>
<ellipse cx="222.157" cy="21.8689" rx="14.0024" ry="14.6317" fill="white"/>
<ellipse cx="188.332" cy="19.6663" rx="16.677" ry="15.8903" fill="white"/>
<ellipse cx="202.491" cy="22.8128" rx="11.3278" ry="14.6317" fill="white"/>
</g>
</g>
<path d="M4.84888 28.8573H53.8976V43.4041C53.8976 48.554 49.7227 52.7289 44.5727 52.7289H14.1737C9.02375 52.7289 4.84888 48.554 4.84888 43.4041V28.8573Z" fill="#1E1E1E" fill-opacity="0.5"/>
<path d="M27.5332 39.4017V42.2784C27.5332 43.1988 28.3576 43.9457 29.3734 43.9457C30.3893 43.9457 31.2137 43.1988 31.2137 42.2784V39.4017C31.2137 38.4813 30.3893 37.7344 29.3734 37.7344C28.3576 37.7344 27.5332 38.4813 27.5332 39.4017Z" fill="#F4A2D0"/>
<path d="M32.5409 9.64813C36.2238 9.64813 39.2443 12.158 39.7056 15.386H44.5565C49.7067 15.386 53.8976 19.183 53.8976 23.8516V31.5568C53.8976 32.1171 53.5859 32.6395 53.0731 32.9485C48.0137 35.983 42.0071 38.0039 35.7061 38.7931C35.6202 38.8042 35.5368 38.8086 35.4534 38.8086C34.6216 38.8086 33.8781 38.2995 33.6696 37.5526C33.1739 35.783 31.3999 34.5447 29.3609 34.5447C27.295 34.5447 25.5406 35.7563 24.9959 37.5615C24.7505 38.3684 23.8942 38.8842 22.9667 38.773C16.7074 37.9816 10.7254 35.9697 5.67576 32.9485C5.15804 32.6417 4.84888 32.1171 4.84888 31.5568V23.8516C4.84888 19.183 9.04954 15.386 14.2145 15.386H19.0409C19.5021 12.158 22.5201 9.64813 26.2055 9.64813H32.5409ZM32.5409 12.9828H26.2055C24.5542 12.9828 23.1753 14.0054 22.7631 15.386H35.9809C35.5687 14.0054 34.1898 12.9828 32.5409 12.9828Z" fill="#F4A2D0"/>
<defs>
<clipPath id="clip0_29_14">
<rect width="158.274" height="59.4707" fill="white" transform="translate(63.7261)"/>
</clipPath>
</defs>
</svg>
