<svg width="76" height="76" viewBox="0 0 76 76" fill="none" xmlns="http://www.w3.org/2000/svg">
<path d="M72.525 31.325L66.725 25.525V17.325C66.725 12.425 62.725 8.42499 57.825 8.42499H49.625L43.825 2.625C40.325 -0.875 34.725 -0.875 31.325 2.625L25.525 8.42499H17.325C12.425 8.42499 8.425 12.425 8.425 17.325V25.525L2.625 31.325C-0.875 34.825 -0.875 40.425 2.625 43.825L8.425 49.625V57.825C8.425 62.725 12.425 66.725 17.325 66.725H25.525L31.325 72.525C34.825 76.025 40.425 76.025 43.825 72.525L49.625 66.725H57.825C62.725 66.725 66.725 62.725 66.725 57.825V49.525L72.525 43.725C76.025 40.425 76.025 34.825 72.525 31.325ZM45.825 48.825C44.625 50.325 42.925 51.325 41.125 51.825C40.325 52.025 39.925 52.525 39.925 53.325C39.925 54.125 39.925 55.025 39.925 55.825C39.925 56.625 39.525 57.025 38.825 57.025C37.925 57.025 37.025 57.025 36.125 57.025C35.325 57.025 34.925 56.525 34.925 55.825C34.925 55.225 34.925 54.625 34.925 54.025C34.925 52.625 34.825 52.625 33.525 52.425C31.825 52.125 30.225 51.825 28.725 51.025C27.525 50.425 27.425 50.125 27.725 48.925C28.025 48.025 28.225 47.025 28.525 46.125C28.825 45.025 29.125 44.925 30.125 45.425C31.825 46.325 33.625 46.825 35.525 47.025C36.725 47.225 37.925 47.025 39.025 46.525C41.125 45.625 41.425 43.225 39.725 41.725C39.125 41.225 38.425 40.825 37.725 40.525C35.925 39.725 34.025 39.125 32.225 38.025C29.425 36.325 27.625 34.025 27.825 30.625C28.025 26.725 30.225 24.325 33.825 23.025C35.325 22.525 35.325 22.525 35.325 21.025C35.325 20.525 35.325 20.025 35.325 19.425C35.325 18.225 35.525 18.025 36.725 18.025C37.125 18.025 37.425 18.025 37.825 18.025C40.225 18.025 40.225 18.025 40.325 20.425C40.325 22.125 40.325 22.125 42.025 22.425C43.325 22.625 44.625 23.025 45.825 23.525C46.525 23.825 46.725 24.325 46.525 25.025C46.225 26.125 45.925 27.125 45.625 28.225C45.325 29.225 45.025 29.325 44.025 28.925C42.125 28.025 40.125 27.625 38.025 27.725C37.425 27.725 36.925 27.825 36.425 28.025C34.625 28.825 34.325 30.825 35.825 32.125C36.625 32.725 37.525 33.225 38.425 33.625C40.025 34.325 41.625 34.925 43.225 35.825C48.025 38.525 49.325 44.625 45.825 48.825Z" fill="#F9DD9A"/>
</svg>
